{
  "title": "Warcraft.2016.TC720P.X264.AAC.English.CHS.Mp4Ba",
  "uid": 14844516,
  "size": 2975236539,
  "categoryP": "video",
  "categoryS": "movies",
  "magnet": "?xt=urn:btih:6549c7d6a14bf2bfd4852283e392e3c4f3e080e3&amp;dn=Warcraft.2016.TC720P.X264.AAC.English.CHS.Mp4Ba&amp;tr=udp%3A%2F%2Ftracker.leechers-paradise.org%3A6969&amp;tr=udp%3A%2F%2Fzer0day.ch%3A1337&amp;tr=udp%3A%2F%2Fopen.demonii.com%3A1337&amp;tr=udp%3A%2F%2Ftracker.coppersurfer.tk%3A6969&amp;tr=udp%3A%2F%2Fexodus.desync.com%3A6969",
  "seeders": 68,
  "leechers": 11,
  "uploader": "xxxlavalxxx",
  "files": 2,
  "time": 1465412588,
  "description": "http://extraimago.com/image/aeEa\r\n \nhttp://www.imdb.com/title/tt0803096/\r\n\r\n\r\nThe peaceful realm of Azeroth stands on the brink of war as its civilization faces a fearsome race of invaders: orc warriors fleeing their dying home to colonize another. As a portal opens to connect the two worlds, one army faces destruction and the other faces extinction. From opposing sides, two heroes are set on a collision course that will decide the fate of their family, their people, and their home. \r\n\r\nDirector: Duncan Jones\r\nWriters: Duncan Jones (screenplay), Charles Leavitt (screenplay)\r\nStars: Travis Fimmel, Paula Patton, Ben Foster \r\nGenres: Action | Adventure | Fantasy\r\nCountry: USA | China\r\nLanguage: English\r\n\r\n\r\nFormat : MPEG-4\r\nFormat profile : Base Media\r\nCodec ID : isom\r\nFile size : 2.77 GiB\r\nDuration : 2h 3mn\r\nOverall bit rate mode : Variable\r\nOverall bit rate : 3 205 Kbps\r\nEncoded date : UTC 2016-06-08 13:27:16\r\nTagged date : UTC 2016-06-08 13:27:16\r\n\r\nVideo\r\nID : 1\r\nFormat : AVC\r\nFormat/Info : Advanced Video Codec\r\nFormat profile :   \r\nFormat settings, CABAC : Yes\r\nFormat settings, ReFrames : 11 frames\r\nCodec ID : avc1\r\nCodec ID/Info : Advanced Video Coding\r\nDuration : 2h 3mn\r\nBit rate : 3 000 Kbps\r\nMaximum bit rate : 46.6 Mbps\r\nWidth : 1 280 pixels\r\nHeight : 526 pixels\r\nDisplay aspect ratio : 2.40:1\r\nFrame rate mode : Constant\r\nFrame rate : 29.970 fps\r\nColor space : YUV\r\nChroma subsampling : 4:2:0\r\nBit depth : 8 bits\r\nScan type : Progressive\r\nBits/(Pixel*Frame) : 0.149\r\nStream size : 2.60 GiB (94%)\r\nTitle : h264:  \r\nWriting library : x264 core 142\r\nEncoded date : UTC 2016-06-08 13:27:16\r\nTagged date : UTC 2016-06-08 13:28:08\r\n\r\nAudio\r\nID : 2\r\nFormat : AAC\r\nFormat/Info : Advanced Audio Codec\r\nFormat profile : LC\r\nCodec ID : 40\r\nDuration : 2h 3mn\r\nBit rate mode : Variable\r\nBit rate : 192 Kbps\r\nMaximum bit rate : 213 Kbps\r\nChannel(s) : 2 channels\r\nChannel positions : Front: L R\r\nSampling rate : 48.0 KHz\r\nCompression mode : Lossy\r\nStream size : 170 MiB (6%)\r\nEncoded date : UTC 2016-06-08 10:25:59\r\nTagged date : UTC 2016-06-08 13:28:08\r\n\r\n \nhttp://extraimago.com/image/aBwM \nhttp://extraimago.com/image/aBwU \nhttp://extraimago.com/image/aBwz \nhttp://extraimago.com/image/aBw0 \nhttp://extraimago.com/image/aBwJ \nhttp://extraimago.com/image/aBwK",
  "parsed": {
    "xt": "urn:btih:6549c7d6a14bf2bfd4852283e392e3c4f3e080e3",
    "dn": "Warcraft.2016.TC720P.X264.AAC.English.CHS.Mp4Ba",
    "tr": [
      "udp://exodus.desync.com:6969",
      "udp://open.demonii.com:1337",
      "udp://tracker.coppersurfer.tk:6969",
      "udp://tracker.leechers-paradise.org:6969",
      "udp://zer0day.ch:1337"
    ],
    "infoHash": "6549c7d6a14bf2bfd4852283e392e3c4f3e080e3",
    "infoHashBuffer": {
      "type": "Buffer",
      "data": [
        101,
        73,
        199,
        214,
        161,
        75,
        242,
        191,
        212,
        133,
        34,
        131,
        227,
        146,
        227,
        196,
        243,
        224,
        128,
        227
      ]
    },
    "name": "Warcraft.2016.TC720P.X264.AAC.English.CHS.Mp4Ba",
    "announce": [
      "udp://exodus.desync.com:6969",
      "udp://open.demonii.com:1337",
      "udp://tracker.coppersurfer.tk:6969",
      "udp://tracker.leechers-paradise.org:6969",
      "udp://zer0day.ch:1337"
    ],
    "urlList": []
  },
  "previous": 79,
  "peers": 202,
  "last_updated": "2016-12-25T03:10:34.487Z"
}